HIERARCHY
ROOT Character1_Hips
{
  OFFSET 27.5593 46.1112 85.5374
  CHANNELS 6 Xposition Yposition Zposition Zrotation Xrotation Yrotation
  JOINT Character1_Spine
  {
    OFFSET 0 8.754 -1.339
    CHANNELS 3 Zrotation Xrotation Yrotation
    JOINT Character1_Spine1
    {
      OFFSET 0 10.855 -0.645
      CHANNELS 3 Zrotation Xrotation Yrotation
      JOINT Character1_LeftShoulder
      {
        OFFSET 1.467 27.745 1.178
        CHANNELS 3 Zrotation Xrotation Yrotation
        JOINT Character1_LeftArm
        {
          OFFSET 18.486 -1.858 0.275
          CHANNELS 3 Zrotation Xrotation Yrotation
          JOINT Character1_LeftForeArm
          {
            OFFSET 31.798 2.36 2.921
            CHANNELS 3 Zrotation Xrotation Yrotation
            JOINT Character1_LeftHand
            {
              OFFSET 29.001 1.642 2.112
              CHANNELS 3 Zrotation Xrotation Yrotation
              End Site
              {
                OFFSET 7.3734 -1.0302 1.64982
              }
            }
            JOINT ForeArmBoxL
            {
              OFFSET 14.9879 1.12959 0.0233554
              CHANNELS 3 Zrotation Xrotation Yrotation
              End Site
              {
                OFFSET 0 0 0
              }
            }
          }
          JOINT ArmBoxL
          {
            OFFSET 15.8286 1.72374 1.18509
            CHANNELS 3 Zrotation Xrotation Yrotation
            End Site
            {
              OFFSET 0 0 0
            }
          }
        }
        JOINT ShoulderBoxL
        {
          OFFSET 8.34438 1.0846 -0.108247
          CHANNELS 3 Zrotation Xrotation Yrotation
          End Site
          {
            OFFSET 0 0 0
          }
        }
      }
      JOINT Character1_RightShoulder
      {
        OFFSET -1.467 27.745 1.178
        CHANNELS 3 Zrotation Xrotation Yrotation
        JOINT Character1_RightArm
        {
          OFFSET -18.486 -1.858 0.275
          CHANNELS 3 Zrotation Xrotation Yrotation
          JOINT Character1_RightForeArm
          {
            OFFSET -31.798 2.35964 2.92082
            CHANNELS 3 Zrotation Xrotation Yrotation
            JOINT Character1_RightHand
            {
              OFFSET -29.0007 1.64167 2.112
              CHANNELS 3 Zrotation Xrotation Yrotation
              End Site
              {
                OFFSET -7.37366 -1.0295 1.65001
              }
            }
            JOINT ForeArmBoxR
            {
              OFFSET -14.9879 1.12995 0.0235372
              CHANNELS 3 Zrotation Xrotation Yrotation
              End Site
              {
                OFFSET 0 0 0
              }
            }
          }
          JOINT ArmBoxR
          {
            OFFSET -15.8286 1.72374 1.18509
            CHANNELS 3 Zrotation Xrotation Yrotation
            End Site
            {
              OFFSET 0 0 0
            }
          }
        }
        JOINT ShoulderBoxR
        {
          OFFSET -8.34438 1.0846 -0.108247
          CHANNELS 3 Zrotation Xrotation Yrotation
          End Site
          {
            OFFSET 0 0 0
          }
        }
      }
      JOINT Character1_Neck
      {
        OFFSET 0 30.836 0.626
        CHANNELS 3 Zrotation Xrotation Yrotation
        JOINT Character1_Head
        {
          OFFSET 0 8.074 3.498
          CHANNELS 3 Zrotation Xrotation Yrotation
          End Site
          {
            OFFSET 0 8.75051 -0.3664
          }
        }
        JOINT NeckBox
        {
          OFFSET 0 4.52749 1.86245
          CHANNELS 3 Zrotation Xrotation Yrotation
          End Site
          {
            OFFSET 0 0 0
          }
        }
      }
      JOINT TorsoBox
      {
        OFFSET 0 12.7155 1.00402
        CHANNELS 3 Zrotation Xrotation Yrotation
        End Site
        {
          OFFSET 0 0 0
        }
      }
    }
    JOINT SpineBox
    {
      OFFSET 0 5.28258 0.326123
      CHANNELS 3 Zrotation Xrotation Yrotation
      End Site
      {
        OFFSET 0 0 0
      }
    }
  }
  JOINT Character1_RightUpLeg
  {
    OFFSET -9.035 -4.63425 1.845
    CHANNELS 3 Zrotation Xrotation Yrotation
    JOINT Character1_RightLeg
    {
      OFFSET -0.919521 -40.345 1.155
      CHANNELS 3 Zrotation Xrotation Yrotation
      JOINT Character1_RightFoot
      {
        OFFSET 1.95452 -45.2655 -4.18888
        CHANNELS 3 Zrotation Xrotation Yrotation
        JOINT Character1_RightToeBase
        {
          OFFSET 1.87056 -6.69517 14.7145
          CHANNELS 3 Zrotation Xrotation Yrotation
          End Site
          {
            OFFSET 0 0 0
          }
        }
        JOINT TalusBoxR
        {
          OFFSET -0.257548 -3.72327 1.77314
          CHANNELS 3 Zrotation Xrotation Yrotation
          End Site
          {
            OFFSET 0 0 0
          }
        }
        JOINT FootPinkyBoxR
        {
          OFFSET -4.44001 -5.06132 12.2866
          CHANNELS 3 Zrotation Xrotation Yrotation
          End Site
          {
            OFFSET 0 0 0
          }
        }
        JOINT FootThumbBoxR
        {
          OFFSET 0.350101 -5.07916 13.5666
          CHANNELS 3 Zrotation Xrotation Yrotation
          End Site
          {
            OFFSET 0 0 0
          }
        }
      }
      JOINT TibiaBoxR
      {
        OFFSET 0.679521 -22.8458 -3.405
        CHANNELS 3 Zrotation Xrotation Yrotation
        End Site
        {
          OFFSET 0 0 0
        }
      }
    }
    JOINT FemurBoxR
    {
      OFFSET -0.557975 -20.9557 -1.11465
      CHANNELS 3 Zrotation Xrotation Yrotation
      End Site
      {
        OFFSET 0 0 0
      }
    }
  }
  JOINT Character1_LeftUpLeg
  {
    OFFSET 9.035 -4.63425 1.845
    CHANNELS 3 Zrotation Xrotation Yrotation
    JOINT Character1_LeftLeg
    {
      OFFSET 0.919521 -40.345 1.155
      CHANNELS 3 Zrotation Xrotation Yrotation
      JOINT Character1_LeftFoot
      {
        OFFSET -1.95452 -45.2655 -4.18888
        CHANNELS 3 Zrotation Xrotation Yrotation
        JOINT Character1_LeftToeBase
        {
          OFFSET -1.87056 -6.69517 14.7145
          CHANNELS 3 Zrotation Xrotation Yrotation
          End Site
          {
            OFFSET 0 0 0
          }
        }
        JOINT FootThumbBoxL
        {
          OFFSET -0.350101 -5.07916 13.5666
          CHANNELS 3 Zrotation Xrotation Yrotation
          End Site
          {
            OFFSET 0 0 0
          }
        }
        JOINT FootPinkyBoxL
        {
          OFFSET 4.44001 -5.06132 12.2866
          CHANNELS 3 Zrotation Xrotation Yrotation
          End Site
          {
            OFFSET 0 0 0
          }
        }
        JOINT TalusBoxL
        {
          OFFSET 0.257548 -3.72327 1.77314
          CHANNELS 3 Zrotation Xrotation Yrotation
          End Site
          {
            OFFSET 0 0 0
          }
        }
      }
      JOINT TibiaBoxL
      {
        OFFSET -0.679521 -22.8458 -3.405
        CHANNELS 3 Zrotation Xrotation Yrotation
        End Site
        {
          OFFSET 0 0 0
        }
      }
    }
    JOINT FemurBoxL
    {
      OFFSET 0.557975 -20.9557 -1.11465
      CHANNELS 3 Zrotation Xrotation Yrotation
      End Site
      {
        OFFSET 0 0 0
      }
    }
  }
  JOINT PelvisBox
  {
    OFFSET 0 0.0930822 -0.0838296
    CHANNELS 3 Zrotation Xrotation Yrotation
    End Site
    {
      OFFSET 0 0 0
    }
  }
}
MOTION
Frames:	4
Frame Time:	0.00833333
-0.00568438 81.8809 164.191 2.54247 -1.68492 -89.4637 -0 -3.97569e-16 -0 -0.300058 -4.68849 -9.25499 8.62283e-07 -2.75072e-08 -4.07794e-07 -88.3507 37.0425 40.6763 -7.89242 2.31177 -90.8546 -1.44617 2.79356 8.09073 -13.2576 -68.9783 -17.331 -6.92027 -72.5829 -11.2678 0.27423 -0.0473218 3.14463 8.62283e-07 -2.75072e-08 -4.07794e-07 89.7909 -0.744777 -42.9322 -7.15288 5.17792 91.0463 -3.9856 4.81502 8.44829 -166.742 68.9783 162.669 -173.08 72.5829 168.732 179.726 0.0473218 -176.855 -3.97569e-16 6.4605e-16 1.59028e-15 -1.98785e-16 5.96354e-16 1.59028e-15 2.77009 19.3729 2.80958 -2.02973e-16 0.528321 2.83015e-15 -3.15373 -7.64158 -7.10508 -2.71522 -4.81532 -17.0292 -3.52784 6.48277 1.42188 6.57033 -17.8338 17.4534 0.525139 4.09015 0.0789722 -178.531 -1.41374 -167.997 -179.276 -0.600381 -160.082 179.447 -1.12556 -169.995 -178 -5 -180 179.002 0.985149 179.879 -0.0372753 1.85249 16.2335 -0.875135 -3.07278 0.147403 -1.06246 0.374275 18.2253 12.2881 20.6832 -0.944844 0.553385 1.12556 10.0051 -0.724387 0.600381 19.9179 -1.46875 1.41374 12.0028 -2 5 -3.1661e-15 0.99792 -0.985149 -0.120973 -1.16644e-33 -8.75185e-16 -7.63636e-17 
0.00385642 81.8747 164.137 2.58284 -1.65557 -89.5715 0 1.27346e-16 -0 -0.29311 -4.77857 -9.11746 8.62283e-07 -2.75072e-08 -4.07794e-07 -88.1637 36.9973 40.5874 -7.79328 2.30884 -90.7783 -1.45949 2.78856 8.15461 -13.2576 -68.9783 -17.331 -6.92027 -72.5829 -11.2678 0.27423 -0.0473218 3.14463 8.62283e-07 -2.75072e-08 -4.07794e-07 89.7999 -0.398399 -42.96 -7.13071 5.17237 91.0406 -4.02508 4.828 8.53685 -166.742 68.9783 162.669 -173.08 72.5829 168.732 179.726 0.0473218 -176.855 1.98785e-16 2.73329e-16 1.59028e-15 1.98785e-16 2.48481e-16 1.59028e-15 2.78869 19.318 2.85749 1.37732e-16 0.528321 4.24522e-15 -3.13783 -7.74522 -6.99831 -2.59908 -4.86411 -16.6895 -3.53362 6.48213 1.40292 6.45909 -17.8427 17.2071 0.503176 3.91821 0.0764606 -178.531 -1.41374 -167.997 -179.276 -0.600381 -160.082 179.447 -1.12556 -169.995 -178 -5 -180 179.002 0.985149 179.879 0.0454605 1.80676 16.4169 -0.881007 -3.08271 0.149843 -1.11687 0.307551 18.0643 12.4134 20.8782 -0.977028 0.553385 1.12556 10.0051 -0.724387 0.600381 19.9179 -1.46875 1.41374 12.0028 -2 5 3.1661e-15 0.99792 -0.985149 -0.120973 -0 -5.12804e-17 -0 
0.0085392 81.8778 164.09 2.57045 -1.64773 -89.6538 -1.98785e-16 4.34841e-16 -0 -0.316525 -4.80754 -8.95271 8.62283e-07 -2.75072e-08 -4.07794e-07 -87.9558 37.0461 40.4823 -7.6968 2.29576 -90.6474 -1.42123 2.80139 7.97044 -13.2576 -68.9783 -17.331 -6.92027 -72.5829 -11.2678 0.27423 -0.0473218 3.14463 8.62283e-07 -2.75072e-08 -4.07794e-07 89.7631 -0.285699 -42.9663 -7.11259 5.16503 91.0643 -4.1041 4.8539 8.71401 -166.742 68.9783 162.669 -173.08 72.5829 168.732 179.726 0.0473218 -176.855 -1.98785e-16 3.47873e-16 1.59028e-15 -1.98785e-16 -7.45443e-17 -0 2.83729 19.3075 2.86821 -7.33603e-16 0.528321 2.83015e-15 -3.14716 -7.78691 -6.86891 -2.5227 -4.87392 -16.3828 -3.53505 6.52524 1.38254 6.32279 -17.9134 16.873 0.44296 3.44793 0.069004 -178.531 -1.41374 -167.997 -179.276 -0.600381 -160.082 179.447 -1.12556 -169.995 -178 -5 -180 179.002 0.985149 179.879 0.0995208 1.82856 16.5131 -0.882404 -3.08511 0.150505 -1.1183 0.302835 18.049 12.2981 20.699 -0.947393 0.553385 1.12556 10.0051 -0.724387 0.600381 19.9179 -1.46875 1.41374 12.0028 -2 5 -3.1661e-15 0.99792 -0.985149 -0.120973 3.05454e-16 3.72637e-16 -0 
0.0106003 81.8772 164.052 2.58528 -1.6537 -89.7187 -0 -1.02498e-16 -0 -0.330707 -4.86565 -8.91299 8.62283e-07 -2.75072e-08 -4.07794e-07 -87.7585 37.0544 40.4209 -7.54696 2.30417 -90.5954 -1.25743 2.85568 7.18453 -13.2576 -68.9783 -17.331 -6.92027 -72.5829 -11.2678 0.27423 -0.0473218 3.14463 8.62283e-07 -2.75072e-08 -4.07794e-07 89.7561 -0.163684 -42.9162 -7.09644 5.1641 91.028 -4.19174 4.8824 8.91032 -166.742 68.9783 162.669 -173.08 72.5829 168.732 179.726 0.0473218 -176.855 -1.98785e-16 -1.73937e-16 -0 -0 -1.98785e-16 -0 2.73307 19.2724 2.92927 -5.43678e-16 0.528321 1.41507e-15 -3.13715 -7.79874 -6.83687 -2.47227 -4.87733 -16.2389 -3.53399 6.46958 1.37484 6.30157 -17.8632 16.834 0.461079 3.58938 0.0713751 -178.531 -1.41374 -167.997 -179.276 -0.600381 -160.082 179.447 -1.12556 -169.995 -178 -5 -180 179.002 0.985149 179.879 0.134592 1.8154 16.5553 -0.883714 -3.097 0.15049 -1.13038 0.285303 18.0158 12.3672 20.8063 -0.96517 0.553385 1.12556 10.0051 -0.724387 0.600381 19.9179 -1.46875 1.41374 12.0028 -2 5 -3.1661e-15 0.99792 -0.985149 -0.120973 -7.97374e-35 -1.19654e-16 -3.81818e-17 
